<svg xmlns="http://www.w3.org/2000/svg" xmlns:xlink="http://www.w3.org/1999/xlink" width="400" height="216.7088607594937" viewBox="0, 0, 400,216.7088607594937"><g id="svgg"><path id="path0" d="M297.371 0.557 C 297.296 0.752,296.302 3.281,295.162 6.177 L 293.089 11.443 292.230 11.507 C 291.758 11.542,288.845 11.428,285.757 11.254 C 282.669 11.079,279.746 10.945,279.261 10.956 L 278.380 10.975 279.696 11.369 C 289.377 14.269,295.543 16.852,310.936 24.458 C 316.477 27.196,321.059 29.388,321.118 29.330 C 321.412 29.035,317.985 22.089,315.841 18.633 C 311.712 11.977,305.455 5.409,299.265 1.232 C 297.542 0.069,297.555 0.074,297.371 0.557 M258.329 12.119 C 285.004 25.683,301.501 38.308,313.551 54.380 L 315.373 56.810 314.497 56.955 C 314.015 57.034,312.025 57.336,310.076 57.625 C 297.248 59.529,285.884 62.485,257.924 71.189 C 251.352 73.235,245.309 75.108,244.496 75.351 C 242.413 75.973,242.749 75.995,245.570 75.421 C 252.189 74.075,260.777 72.798,267.848 72.109 C 271.197 71.783,286.408 70.888,288.608 70.887 C 291.403 70.886,310.325 72.043,313.418 72.405 C 325.977 73.871,338.414 76.451,349.234 79.834 C 352.885 80.975,355.497 79.832,357.855 76.062 C 358.729 74.664,358.714 74.610,356.498 70.881 C 340.797 44.457,312.125 25.134,271.190 13.390 C 266.115 11.934,252.736 8.694,251.883 8.715 C 251.753 8.718,254.653 10.250,258.329 12.119 M1.924 16.753 C 10.453 24.896,22.770 34.473,35.988 43.238 C 43.500 48.219,42.787 47.762,48.304 51.134 C 59.612 58.045,85.518 72.209,83.740 70.508 C 83.410 70.192,80.041 67.073,76.253 63.576 C 65.841 53.963,60.485 48.498,55.632 42.533 C 54.681 41.365,53.922 40.390,53.945 40.367 C 53.968 40.344,55.989 41.001,58.437 41.828 C 65.941 44.362,77.846 47.953,78.177 47.783 C 82.295 45.667,90.716 36.194,93.689 30.334 C 94.644 28.452,94.776 28.557,91.443 28.557 C 89.620 28.557,88.506 28.480,88.506 28.354 C 88.506 28.229,87.392 28.152,85.570 28.152 C 83.747 28.152,82.633 28.075,82.633 27.949 C 82.633 27.823,81.485 27.747,79.595 27.747 C 77.924 27.747,76.557 27.665,76.557 27.565 C 76.557 27.466,75.235 27.318,73.620 27.237 C 72.005 27.156,70.684 27.010,70.684 26.912 C 70.684 26.814,70.235 26.734,69.687 26.734 C 58.436 26.734,25.581 21.449,5.417 16.396 C 2.771 15.732,0.538 15.194,0.455 15.198 C 0.372 15.203,1.033 15.902,1.924 16.753 M204.746 24.174 C 204.683 24.241,202.797 24.435,200.554 24.604 C 189.388 25.446,179.871 28.774,171.291 34.835 C 169.627 36.011,163.524 41.668,163.714 41.858 C 163.756 41.899,164.555 41.604,165.490 41.201 C 181.847 34.154,202.030 32.459,224.203 36.270 C 226.152 36.606,228.066 36.952,228.456 37.040 C 228.846 37.129,226.761 37.156,223.822 37.102 C 218.599 37.005,217.360 37.066,210.228 37.774 C 208.613 37.935,206.425 38.110,205.367 38.164 C 199.760 38.450,189.362 40.879,181.712 43.690 C 178.637 44.820,178.669 44.857,182.288 44.353 C 186.725 43.736,194.903 43.463,197.457 43.846 C 198.568 44.013,200.963 44.202,202.777 44.267 C 207.684 44.440,215.064 45.421,222.987 46.952 L 224.911 47.324 223.752 47.461 C 209.620 49.127,187.640 56.743,174.993 64.356 C 171.256 66.605,164.909 71.002,165.109 71.202 C 165.145 71.238,166.585 70.734,168.309 70.081 C 178.951 66.053,196.655 62.193,206.174 61.826 C 207.342 61.781,208.344 61.673,208.402 61.587 C 208.459 61.500,213.109 61.221,218.734 60.967 L 228.962 60.504 231.291 58.936 C 240.936 52.446,249.965 48.959,271.392 43.449 C 275.458 42.404,278.614 41.542,278.404 41.534 C 278.195 41.526,277.101 40.942,275.974 40.237 C 263.802 32.623,249.914 27.771,233.924 25.547 C 229.587 24.944,229.616 24.947,226.329 24.608 C 223.246 24.290,204.981 23.922,204.746 24.174 M90.719 43.270 C 89.928 44.133,86.091 47.369,83.924 49.000 L 81.924 50.506 84.759 51.909 C 90.344 54.671,97.071 57.532,107.241 61.468 C 124.336 68.085,132.771 71.563,134.305 72.626 C 137.057 74.533,138.157 79.028,136.665 82.268 L 136.134 83.421 137.383 82.718 C 140.519 80.953,143.971 79.178,147.139 77.702 C 151.001 75.902,163.148 70.684,163.476 70.684 C 163.901 70.684,163.360 69.940,158.532 63.885 L 153.620 57.725 152.304 57.723 C 138.122 57.698,113.274 51.838,95.136 44.241 C 90.983 42.502,91.349 42.583,90.719 43.270 M288.101 43.973 C 280.903 44.513,275.560 45.704,266.532 48.780 C 222.636 63.739,184.061 84.896,162.378 105.904 C 161.067 107.174,160.031 108.251,160.077 108.297 C 160.123 108.342,161.742 107.474,163.675 106.367 C 197.311 87.103,238.645 69.233,292.177 50.810 C 296.167 49.437,297.599 48.863,297.409 48.713 C 297.265 48.599,296.453 47.435,295.605 46.127 L 294.063 43.747 292.196 43.776 C 291.169 43.793,289.327 43.881,288.101 43.973 M69.671 50.617 C 69.671 50.711,69.899 50.939,70.179 51.122 C 71.037 51.684,78.521 57.707,81.519 60.248 C 94.079 70.894,104.155 81.152,113.924 93.237 C 115.261 94.891,117.434 97.579,118.753 99.211 C 126.482 108.770,131.326 116.213,134.371 123.207 C 135.378 125.519,137.114 130.329,137.114 130.806 C 137.114 130.905,133.653 132.383,129.424 134.090 C 125.194 135.797,121.753 137.210,121.778 137.232 C 121.846 137.290,128.375 136.410,133.063 135.711 C 135.347 135.371,138.738 134.865,140.600 134.588 C 146.787 133.665,149.111 133.286,149.213 133.183 C 149.372 133.025,148.892 129.942,148.342 127.595 C 146.309 118.909,141.925 111.050,134.389 102.582 C 118.272 84.474,100.156 69.169,79.797 56.465 C 75.013 53.479,69.671 50.394,69.671 50.617 M217.114 63.964 C 217.114 64.149,211.004 64.612,208.608 64.609 C 193.750 64.592,159.010 74.977,138.094 85.689 L 136.744 86.380 146.246 96.394 C 151.471 101.902,155.746 106.459,155.745 106.521 C 155.745 106.583,156.861 105.558,158.226 104.244 C 176.570 86.588,196.104 73.548,217.181 64.886 C 218.425 64.375,219.481 63.921,219.527 63.877 C 219.574 63.833,219.050 63.797,218.363 63.797 C 217.676 63.797,217.114 63.873,217.114 63.964 M289.728 77.924 C 288.729 77.961,287.864 78.062,287.804 78.147 C 287.745 78.233,284.597 78.462,280.810 78.657 C 254.438 80.012,219.710 87.760,189.468 99.037 C 180.761 102.283,173.067 105.466,174.987 105.027 C 175.750 104.852,184.871 103.390,189.468 102.705 C 200.393 101.078,211.507 99.700,216.101 99.403 C 217.939 99.284,219.489 99.124,219.544 99.047 C 220.179 98.177,248.663 97.419,258.329 98.016 C 260.000 98.119,263.008 98.297,265.013 98.411 C 267.018 98.525,269.889 98.796,271.392 99.014 C 275.361 99.587,279.387 100.323,279.093 100.421 C 278.953 100.467,277.701 101.314,276.311 102.302 C 264.071 110.999,249.576 116.858,235.750 118.696 C 234.913 118.807,233.635 118.982,232.911 119.084 C 230.836 119.378,225.265 119.321,221.730 118.971 C 218.184 118.619,217.845 118.650,219.287 119.189 C 228.605 122.677,238.064 131.108,246.076 143.067 L 247.962 145.882 251.424 147.553 C 253.328 148.473,257.438 150.339,260.557 151.700 C 263.676 153.061,266.840 154.465,267.588 154.819 C 268.337 155.174,268.912 155.426,268.866 155.381 C 268.597 155.112,271.632 147.766,273.860 143.291 C 285.508 119.897,307.973 99.128,337.077 84.850 L 340.685 83.080 338.495 82.558 C 330.715 80.705,322.466 79.348,315.544 78.784 C 314.041 78.661,312.673 78.521,312.506 78.473 C 310.962 78.028,296.339 77.676,289.728 77.924 M331.342 92.423 C 326.970 94.421,322.097 97.370,317.873 100.574 C 314.436 103.181,314.434 103.184,316.051 102.462 C 321.949 99.830,327.320 98.515,335.041 97.812 C 337.889 97.553,342.658 97.665,342.874 97.997 C 342.936 98.093,344.172 98.223,345.620 98.286 C 350.699 98.509,358.166 100.255,365.620 102.962 C 366.706 103.356,367.595 103.641,367.595 103.595 C 367.595 103.422,363.557 100.641,361.418 99.341 C 352.703 94.042,344.022 91.336,335.797 91.353 L 333.671 91.358 331.342 92.423 M55.392 96.633 C 47.940 97.557,43.155 98.727,37.646 100.969 C 3.802 114.744,-10.209 155.723,8.270 186.889 C 31.265 225.670,86.826 226.861,111.392 189.098 C 113.202 186.317,112.564 186.453,115.842 188.147 L 118.570 189.557 120.491 188.521 C 125.969 185.568,132.475 181.126,138.835 175.996 C 142.659 172.912,147.479 168.766,147.458 168.577 C 147.436 168.372,145.088 164.107,143.550 161.476 L 142.459 159.611 137.406 163.675 C 129.051 170.397,124.879 172.896,119.859 174.187 L 118.442 174.552 118.562 174.111 C 119.890 169.256,120.736 162.696,120.858 156.304 C 120.950 151.480,120.998 150.886,121.291 150.885 C 121.472 150.884,124.719 150.562,128.506 150.170 C 132.294 149.777,137.124 149.282,139.241 149.071 C 141.357 148.859,144.199 148.573,145.557 148.436 L 148.025 148.187 148.156 146.853 C 148.352 144.856,149.046 138.567,149.191 137.468 C 149.348 136.279,150.200 136.274,141.468 137.512 C 133.744 138.608,124.490 139.746,123.303 139.746 C 122.892 139.747,122.499 139.838,122.430 139.949 C 122.362 140.061,121.467 140.152,120.444 140.152 L 118.582 140.152 117.609 137.266 C 110.619 116.538,91.823 100.713,70.051 97.226 C 65.182 96.446,58.936 96.193,55.392 96.633 M336.911 101.297 C 300.034 105.779,276.758 138.465,285.575 173.388 C 297.752 221.620,362.845 232.571,390.194 190.987 C 412.574 156.959,394.395 111.857,354.566 102.593 C 352.696 102.158,351.454 101.943,346.999 101.280 C 345.326 101.031,339.011 101.041,336.911 101.297 M181.671 110.819 C 203.307 123.101,221.844 146.582,221.123 160.791 C 220.812 166.921,213.891 170.186,198.076 171.662 C 197.241 171.740,196.508 171.878,196.449 171.969 C 196.101 172.503,182.453 172.962,166.944 172.962 L 151.298 172.962 149.146 174.090 C 146.267 175.600,143.004 177.543,140.051 179.506 C 136.153 182.095,123.310 191.281,123.498 191.343 C 123.593 191.375,126.080 191.083,129.025 190.694 C 131.970 190.306,137.068 189.703,140.354 189.355 C 143.641 189.006,146.487 188.638,146.681 188.538 C 146.874 188.437,148.082 188.354,149.364 188.354 C 150.784 188.354,151.696 188.275,151.696 188.152 C 151.696 188.028,152.641 187.949,154.127 187.949 C 155.612 187.949,156.557 187.871,156.557 187.747 C 156.557 187.623,157.496 187.544,158.970 187.544 C 160.298 187.544,161.414 187.470,161.451 187.379 C 161.527 187.194,180.177 186.379,190.380 186.115 C 194.298 186.013,199.585 186.023,203.443 186.139 C 217.414 186.561,238.485 187.427,238.549 187.583 C 238.586 187.673,239.657 187.747,240.928 187.747 C 242.200 187.747,243.241 187.828,243.241 187.928 C 243.241 188.027,245.428 188.176,248.101 188.257 C 250.775 188.339,252.962 188.469,252.962 188.546 C 252.962 188.623,254.489 188.801,256.354 188.941 C 259.758 189.198,270.365 190.324,274.528 190.871 C 275.751 191.032,276.773 191.142,276.799 191.116 C 276.826 191.090,276.251 190.207,275.523 189.155 C 270.437 181.799,267.327 170.673,267.827 161.617 L 267.955 159.284 262.940 156.969 C 260.181 155.695,255.301 153.449,252.094 151.978 C 245.419 148.915,245.030 148.648,243.165 145.847 C 231.646 128.544,211.192 116.418,184.042 110.797 C 180.358 110.035,180.292 110.035,181.671 110.819 M64.650 119.015 C 65.842 119.084,66.804 119.197,66.787 119.266 C 66.769 119.336,67.040 119.947,67.388 120.624 C 69.152 124.052,69.093 128.661,67.236 132.630 C 66.711 133.753,66.575 133.903,66.178 133.806 C 63.294 133.101,60.455 133.145,56.709 133.952 C 55.428 134.228,53.058 134.740,51.443 135.089 C 47.692 135.902,44.890 135.979,42.329 135.342 C 41.382 135.106,40.289 134.850,39.899 134.773 C 37.849 134.369,35.506 132.556,34.522 130.613 L 33.980 129.545 34.661 128.967 C 39.830 124.577,45.115 121.791,51.241 120.226 C 54.538 119.383,60.106 118.637,61.772 118.814 C 62.162 118.855,63.457 118.946,64.650 119.015 M347.126 123.119 C 349.358 123.372,349.257 123.303,349.660 124.853 C 350.606 128.487,348.979 136.559,347.365 136.238 C 343.199 135.411,338.656 135.650,334.707 136.904 C 328.149 138.987,322.560 138.400,317.501 135.097 C 315.461 133.765,315.465 133.784,316.875 132.500 C 322.402 127.468,329.853 124.027,337.114 123.155 C 338.116 123.034,339.165 122.898,339.443 122.853 C 340.264 122.719,345.059 122.885,347.126 123.119 M80.162 124.304 C 86.234 128.140,91.447 133.874,94.722 140.319 C 96.106 143.044,96.112 142.988,94.430 142.984 C 92.571 142.980,84.383 143.834,84.236 144.047 C 84.171 144.142,83.260 144.192,82.211 144.160 L 80.304 144.101 79.229 142.684 C 74.673 136.677,73.834 128.679,77.284 124.154 C 78.226 122.919,77.948 122.905,80.162 124.304 M363.049 129.429 C 370.994 135.366,376.596 144.538,378.195 154.228 C 378.369 155.280,375.676 156.819,372.142 157.687 C 369.929 158.231,369.826 158.234,366.475 157.854 L 365.456 157.739 365.005 155.535 C 364.087 151.040,362.810 147.999,360.588 145.013 C 356.441 139.438,355.338 132.720,357.710 127.475 C 357.957 126.928,358.141 126.413,358.118 126.331 C 358.053 126.093,361.393 128.191,363.049 129.429 M16.797 134.657 C 13.520 142.828,12.024 152.034,12.743 159.595 C 15.570 189.296,45.152 209.809,74.070 202.121 C 81.431 200.164,89.768 195.503,96.023 189.848 C 98.193 187.886,98.357 187.793,97.115 189.233 C 89.686 197.840,77.583 204.461,66.822 205.804 C 65.716 205.942,64.810 206.128,64.810 206.217 C 64.810 206.545,57.858 206.383,54.319 205.974 C 19.520 201.949,0.478 165.572,16.651 134.015 C 17.983 131.417,18.024 131.597,16.797 134.657 M299.629 136.922 C 295.716 147.424,294.739 158.372,296.921 167.291 C 303.595 194.576,331.963 210.440,358.498 201.725 C 365.548 199.410,371.786 195.589,378.014 189.772 C 379.898 188.012,379.089 189.147,376.571 191.794 C 369.241 199.504,357.959 205.307,348.348 206.311 C 347.683 206.381,347.139 206.525,347.139 206.633 C 347.139 207.027,336.761 206.677,334.177 206.195 C 301.769 200.151,284.837 167.163,298.945 137.550 C 300.428 134.437,300.621 134.260,299.629 136.922 M33.625 139.308 C 35.861 140.078,38.752 141.851,40.077 143.264 L 40.558 143.778 39.747 145.459 C 37.951 149.178,37.281 152.235,37.136 157.367 L 37.031 161.114 36.211 163.342 C 33.940 169.517,31.437 172.400,27.441 173.443 C 26.783 173.615,26.203 173.714,26.152 173.663 C 26.101 173.611,26.167 173.570,26.299 173.570 C 26.458 173.570,26.404 173.303,26.142 172.789 C 23.288 167.196,21.956 157.040,23.176 150.177 C 23.893 146.142,26.061 140.267,27.079 139.600 C 28.449 138.703,31.473 138.568,33.625 139.308 M313.147 141.248 C 315.901 141.778,318.833 143.221,320.901 145.064 L 321.904 145.957 321.066 147.566 C 319.650 150.289,319.247 152.116,318.588 158.810 C 317.807 166.745,316.348 170.112,311.715 174.675 C 310.031 176.334,310.273 176.451,308.582 173.165 C 304.179 164.612,304.382 152.940,309.111 142.734 L 309.932 140.962 310.796 140.962 C 311.272 140.962,312.329 141.091,313.147 141.248 M96.962 162.419 C 97.547 162.676,98.025 162.976,98.025 163.087 C 98.025 163.406,95.771 171.057,95.591 171.348 C 95.424 171.619,93.524 170.956,85.527 167.836 L 82.245 166.556 84.414 165.317 C 90.582 161.795,93.828 161.045,96.962 162.419 M378.101 164.362 C 378.849 165.111,375.108 174.595,372.511 178.532 C 368.539 184.554,359.282 192.499,356.927 191.908 C 355.136 191.459,351.697 186.736,350.798 183.492 C 350.161 181.192,350.195 181.021,351.383 180.600 C 353.890 179.709,356.393 177.555,360.702 172.581 C 364.743 167.916,368.574 165.312,372.779 164.370 C 374.067 164.082,377.815 164.076,378.101 164.362 M43.473 173.128 C 45.336 174.982,47.564 176.302,51.940 178.147 C 61.902 182.347,66.001 186.305,66.181 191.899 C 66.269 194.637,66.391 194.532,63.147 194.530 C 51.872 194.522,41.749 190.895,34.885 184.405 L 33.385 182.987 33.697 181.507 C 34.491 177.733,37.075 174.371,40.729 172.357 C 42.113 171.594,41.859 171.523,43.473 173.128 M84.287 173.851 C 87.332 175.009,90.469 176.210,91.260 176.522 L 92.696 177.088 91.387 178.784 C 87.959 183.225,79.557 190.380,77.769 190.380 C 74.732 190.380,70.649 185.610,69.367 180.563 L 68.905 178.746 70.383 177.903 C 72.637 176.618,75.388 174.679,77.122 173.152 C 77.981 172.395,78.699 171.769,78.717 171.761 C 78.736 171.753,81.242 172.694,84.287 173.851 M324.889 175.458 C 326.849 177.407,328.961 178.670,333.435 180.567 C 342.162 184.268,345.665 187.393,347.660 193.256 C 348.285 195.095,348.315 194.975,347.190 195.128 C 336.460 196.584,324.540 192.597,316.014 184.701 L 314.803 183.578 315.345 182.240 C 316.548 179.270,318.333 177.139,321.258 175.183 C 323.461 173.709,323.103 173.682,324.889 175.458 " stroke="none" fill="currentColor" fill-rule="evenodd"></path></g></svg>
